<svg width="19" height="25" viewBox="0 0 19 25" fill="none" xmlns="http://www.w3.org/2000/svg">
<path d="M9.45801 13.2422C9.8877 13.2422 10.2148 13.374 10.4492 13.6377C10.918 14.1699 10.9277 15.2344 10.4395 15.791C10.2002 16.0645 9.8584 16.2061 9.40918 16.2061H8.0957V13.2422H9.45801ZM18.4082 5.12695L13.623 0.341797C13.4033 0.12207 13.1055 0 12.793 0H12.5V6.25H18.75V5.95215C18.75 5.64453 18.6279 5.34668 18.4082 5.12695ZM10.9375 6.64062V0H1.17188C0.522461 0 0 0.522461 0 1.17188V23.8281C0 24.4775 0.522461 25 1.17188 25H17.5781C18.2275 25 18.75 24.4775 18.75 23.8281V7.8125H12.1094C11.4648 7.8125 10.9375 7.28516 10.9375 6.64062ZM13.5254 14.707C13.5254 19.1162 9.18945 18.4961 8.10059 18.4961V21.2891C8.10059 21.6113 7.83691 21.875 7.51465 21.875H6.01074C5.68848 21.875 5.4248 21.6113 5.4248 21.2891V11.5332C5.4248 11.2109 5.68848 10.9473 6.01074 10.9473H9.96582C12.1387 10.9473 13.5254 12.5488 13.5254 14.707Z" fill="white"/>
</svg>
