<svg width="22" height="23" viewBox="0 0 22 23" fill="none" xmlns="http://www.w3.org/2000/svg">
<path d="M17.2857 14.375C16.1755 14.375 15.1551 14.7262 14.3496 15.3136L9.3168 12.4362C9.46584 11.8195 9.46584 11.1805 9.3168 10.5637L14.3496 7.68631C15.1551 8.27376 16.1755 8.625 17.2857 8.625C19.8893 8.625 22 6.69421 22 4.3125C22 1.93079 19.8893 0 17.2857 0C14.6821 0 12.5714 1.93079 12.5714 4.3125C12.5714 4.63405 12.6102 4.94725 12.6832 5.24872L7.6504 8.12614C6.8449 7.53874 5.8245 7.1875 4.71429 7.1875C2.11067 7.1875 0 9.11829 0 11.5C0 13.8817 2.11067 15.8125 4.71429 15.8125C5.8245 15.8125 6.8449 15.4613 7.6504 14.8739L12.6832 17.7513C12.6088 18.0587 12.5713 18.3726 12.5714 18.6875C12.5714 21.0692 14.6821 23 17.2857 23C19.8893 23 22 21.0692 22 18.6875C22 16.3058 19.8893 14.375 17.2857 14.375Z" fill="white"/>
</svg>
